<svg width="512" height="512" viewBox="0 0 512 512" fill="none" xmlns="http://www.w3.org/2000/svg">
<path d="M0 0H512V512H0V0Z" fill="#01426E"/>
<path d="M75 108C75 94.1929 86.1929 83 100 83C113.807 83 125 94.1929 125 108V416C125 429.807 113.807 441 100 441C86.1929 441 75 429.807 75 416V108Z" fill="white"/>
<path d="M377 106.176C377 92.3686 388.193 81.1758 402 81.1758C415.807 81.1758 427 92.3686 427 106.176V404C427 417.807 415.807 429 402 429C388.193 429 377 417.807 377 404V106.176Z" fill="#06E2FF"/>
<path d="M324 234C324 228.477 328.477 224 334 224C339.523 224 344 228.477 344 234V409C344 414.523 339.523 419 334 419C328.477 419 324 414.523 324 409V234Z" fill="#06E2FF"/>
<path d="M271.873 395C284.646 395 295 405.354 295 418.127C295 430.899 284.646 441.253 271.873 441.253H98.1266C85.3541 441.253 75 430.899 75 418.127C75 405.354 85.3541 395 98.1266 395H271.873Z" fill="white"/>
<path d="M163 107.101C163 93.2936 174.193 82.1008 188 82.1008C201.807 82.1008 213 93.2936 213 107.101V334.62C213 348.427 201.807 359.62 188 359.62C174.193 359.62 163 348.427 163 334.62V107.101Z" fill="#06E2FF"/>
<path d="M170.644 119.966C160.899 110.951 160.899 96.3362 170.644 87.3219C180.389 78.3075 196.188 78.3075 205.932 87.3219L312.065 185.502C321.81 194.516 321.81 209.131 312.065 218.146C302.321 227.16 286.522 227.16 276.777 218.146L170.644 119.966Z" fill="#06E2FF"/>
<path d="M312.932 218.146C303.188 227.16 287.389 227.16 277.644 218.146C267.9 209.131 267.9 194.516 277.644 185.502L383.778 87.3219C393.522 78.3075 409.321 78.3076 419.066 87.3219C428.81 96.3362 428.81 110.951 419.066 119.966L312.932 218.146Z" fill="#06E2FF"/>
<path d="M358 248C358 261.255 347.255 272 334 272C320.745 272 310 261.255 310 248C310 234.745 320.745 224 334 224C347.255 224 358 234.745 358 248Z" fill="#06E2FF"/>
<path d="M346 248C346 254.627 340.627 260 334 260C327.373 260 322 254.627 322 248C322 241.373 327.373 236 334 236C340.627 236 346 241.373 346 248Z" fill="#01426E"/>
<path d="M358 395C358 408.255 347.255 419 334 419C320.745 419 310 408.255 310 395C310 381.745 320.745 371 334 371C347.255 371 358 381.745 358 395Z" fill="#06E2FF"/>
<path d="M346 395C346 401.627 340.627 407 334 407C327.373 407 322 401.627 322 395C322 388.373 327.373 383 334 383C340.627 383 346 388.373 346 395Z" fill="#01426E"/>
</svg>
